<svg width="62" height="62" viewBox="0 0 62 62" fill="none" xmlns="http://www.w3.org/2000/svg">
<g filter="url(#filter0_b_265_574)">
<circle cx="31" cy="31" r="31" fill="white" fill-opacity="0.15"/>
<circle cx="31" cy="31" r="29.5" stroke="#B72C2C" stroke-width="3"/>
</g>
<path d="M42.3599 26.6326C42.3474 25.689 42.1708 24.7549 41.838 23.8719C41.5494 23.1271 41.1086 22.4507 40.5438 21.8859C39.979 21.3211 39.3026 20.8803 38.5578 20.5917C37.6862 20.2646 36.7653 20.0876 35.8345 20.0685C34.6361 20.0149 34.2561 20 31.2139 20C28.1717 20 27.7817 20 26.592 20.0685C25.6616 20.0878 24.7412 20.2647 23.87 20.5917C23.125 20.8801 22.4485 21.3208 21.8837 21.8857C21.3189 22.4505 20.8782 23.127 20.5898 23.8719C20.2619 24.7429 20.0854 25.6635 20.0678 26.594C20.0142 27.7937 19.998 28.1736 19.998 31.2158C19.998 34.258 19.998 34.6467 20.0678 35.8377C20.0865 36.7696 20.2622 37.6889 20.5898 38.5622C20.8787 39.3069 21.3197 39.9832 21.8847 40.5478C22.4497 41.1123 23.1263 41.5529 23.8712 41.8412C24.7401 42.1815 25.6606 42.3711 26.5933 42.4018C27.7929 42.4553 28.1729 42.4715 31.2151 42.4715C34.2573 42.4715 34.6473 42.4715 35.837 42.4018C36.7678 42.3834 37.6887 42.2069 38.5603 41.8798C39.3049 41.5909 39.9811 41.15 40.5459 40.5852C41.1106 40.0205 41.5515 39.3442 41.8405 38.5996C42.1681 37.7276 42.3438 36.8082 42.3624 35.8751C42.416 34.6766 42.4322 34.2967 42.4322 31.2532C42.4297 28.211 42.4297 27.8248 42.3599 26.6326ZM31.2064 36.9689C28.0247 36.9689 25.4471 34.3913 25.4471 31.2096C25.4471 28.0279 28.0247 25.4503 31.2064 25.4503C32.7339 25.4503 34.1988 26.0571 35.2788 27.1372C36.3589 28.2173 36.9657 29.6821 36.9657 31.2096C36.9657 32.7371 36.3589 34.202 35.2788 35.282C34.1988 36.3621 32.7339 36.9689 31.2064 36.9689ZM37.1949 26.5803C36.4512 26.5803 35.8519 25.9798 35.8519 25.2373C35.8519 25.061 35.8867 24.8865 35.9541 24.7236C36.0216 24.5607 36.1205 24.4128 36.2451 24.2881C36.3698 24.1635 36.5177 24.0646 36.6806 23.9971C36.8435 23.9297 37.018 23.895 37.1943 23.895C37.3706 23.895 37.5451 23.9297 37.708 23.9971C37.8708 24.0646 38.0188 24.1635 38.1435 24.2881C38.2681 24.4128 38.367 24.5607 38.4344 24.7236C38.5019 24.8865 38.5366 25.061 38.5366 25.2373C38.5366 25.9798 37.9362 26.5803 37.1949 26.5803Z" fill="#B72C2C"/>
<path d="M31.2059 34.9508C33.2721 34.9508 34.947 33.2758 34.947 31.2097C34.947 29.1435 33.2721 27.4686 31.2059 27.4686C29.1398 27.4686 27.4648 29.1435 27.4648 31.2097C27.4648 33.2758 29.1398 34.9508 31.2059 34.9508Z" fill="#B72C2C"/>
<defs>
<filter id="filter0_b_265_574" x="-14" y="-14" width="90" height="90" filterUnits="userSpaceOnUse" color-interpolation-filters="sRGB">
<feFlood flood-opacity="0" result="BackgroundImageFix"/>
<feGaussianBlur in="BackgroundImageFix" stdDeviation="7"/>
<feComposite in2="SourceAlpha" operator="in" result="effect1_backgroundBlur_265_574"/>
<feBlend mode="normal" in="SourceGraphic" in2="effect1_backgroundBlur_265_574" result="shape"/>
</filter>
</defs>
</svg>
