<svg width="62" height="62" viewBox="0 0 62 62" fill="none" xmlns="http://www.w3.org/2000/svg">
<g filter="url(#filter0_b_265_571)">
<circle cx="31" cy="31" r="31" fill="white" fill-opacity="0.15"/>
<circle cx="31" cy="31" r="29.5" stroke="#D8AD3D" stroke-width="3"/>
</g>
<path d="M44.1427 24.9373C43.9908 24.3739 43.694 23.86 43.2818 23.4469C42.8696 23.0338 42.3565 22.7358 41.7933 22.5827C39.7053 22.0093 31.352 22 31.352 22C31.352 22 23 21.9907 20.9107 22.5387C20.3479 22.6989 19.8358 23.001 19.4234 23.4162C19.0111 23.8313 18.7124 24.3455 18.556 24.9093C18.0053 26.9973 18 31.328 18 31.328C18 31.328 17.9947 35.68 18.5413 37.7467C18.848 38.8893 19.748 39.792 20.892 40.1C23.0013 40.6733 31.332 40.6827 31.332 40.6827C31.332 40.6827 39.6853 40.692 41.7733 40.1453C42.3367 39.9925 42.8503 39.6952 43.2635 39.2829C43.6767 38.8706 43.9752 38.3577 44.1293 37.7947C44.6813 35.708 44.6853 31.3787 44.6853 31.3787C44.6853 31.3787 44.712 27.0253 44.1427 24.9373ZM28.68 35.34L28.6867 27.34L35.6293 31.3467L28.68 35.34Z" fill="#D8AD3D"/>
<defs>
<filter id="filter0_b_265_571" x="-14" y="-14" width="90" height="90" filterUnits="userSpaceOnUse" color-interpolation-filters="sRGB">
<feFlood flood-opacity="0" result="BackgroundImageFix"/>
<feGaussianBlur in="BackgroundImageFix" stdDeviation="7"/>
<feComposite in2="SourceAlpha" operator="in" result="effect1_backgroundBlur_265_571"/>
<feBlend mode="normal" in="SourceGraphic" in2="effect1_backgroundBlur_265_571" result="shape"/>
</filter>
</defs>
</svg>
